<mxfile host="app.diagrams.net" modified="2023-04-24T17:54:51.515Z" agent="Mozilla/5.0 (Windows NT 10.0; Win64; x64) AppleWebKit/537.36 (KHTML, like Gecko) Chrome/112.0.0.0 Safari/537.36" version="21.2.1" etag="EVu_K_toOLR2zCA_N-BZ" type="github">
  <diagram name="Page-1" id="bg-67prCg7s-gCF8KsY7">
    <mxGraphModel>
      <root>
        <mxCell id="0" />
        <mxCell id="1" parent="0" />
      </root>
    </mxGraphModel>
  </diagram>
</mxfile>
